<svg height="512pt" viewBox="0 0 512 512" width="512pt" xmlns="http://www.w3.org/2000/svg"><path d="m106.667969 106.667969c-60.824219 0-106.667969 27.519531-106.667969 64s45.84375 64 106.667969 64c60.820312 0 106.664062-27.519531 106.664062-64s-45.84375-64-106.664062-64zm0 0"/><path d="m405.332031 0c-60.820312 0-106.664062 27.519531-106.664062 64s45.84375 64 106.664062 64c60.824219 0 106.667969-27.519531 106.667969-64s-45.84375-64-106.667969-64zm0 0"/><path d="m383.785156 358.59375c-1.996094-69.144531-58.625-124.160156-127.796875-124.160156s-125.796875 55.015625-127.796875 124.160156c-51.753906 15.570312-85.523437 40.167969-85.523437 68.074219 0 47.125 95.507812 85.332031 213.332031 85.332031s213.332031-38.207031 213.332031-85.332031c0-27.90625-33.746093-52.523438-85.546875-68.074219zm-255.785156 91.132812c-15.445312-4.40625-29.675781-12.296874-41.601562-23.058593 11.898437-10.792969 26.136718-18.675781 41.601562-23.019531zm85.332031-65.726562c-11.78125 0-21.332031-9.550781-21.332031-21.332031 0-11.785157 9.550781-21.335938 21.332031-21.335938 11.785157 0 21.335938 9.550781 21.335938 21.335938 0 11.78125-9.550781 21.332031-21.335938 21.332031zm64 64h-42.664062v-42.667969h42.664062zm21.335938-64c-11.785157 0-21.335938-9.550781-21.335938-21.332031 0-11.785157 9.550781-21.335938 21.335938-21.335938 11.78125 0 21.332031 9.550781 21.332031 21.335938 0 11.78125-9.550781 21.332031-21.332031 21.332031zm85.332031 65.726562v-46.140624c15.472656 4.355468 29.714844 12.257812 41.601562 23.082031-11.925781 10.761719-26.15625 18.652343-41.601562 23.058593zm0 0"/></svg>